<?xml version="1.0" encoding="UTF-8"?>
<!DOCTYPE svg PUBLIC "-//W3C//DTD SVG 1.1//EN" "http://www.w3.org/Graphics/SVG/1.1/DTD/svg11.dtd">
<!-- Creator: CorelDRAW X7 -->
<svg xmlns="http://www.w3.org/2000/svg" xml:space="preserve" width="26in" height="7in" version="1.1" style="shape-rendering:geometricPrecision; text-rendering:geometricPrecision; image-rendering:optimizeQuality; fill-rule:evenodd; clip-rule:evenodd"
viewBox="0 0 26000 7000"
 xmlns:xlink="http://www.w3.org/1999/xlink">
 <defs>
  <style type="text/css">
   <![CDATA[
    .fil13 {fill:none}
    .fil0 {fill:black;fill-rule:nonzero}
    .fil24 {fill:#1D70A6;fill-rule:nonzero}
    .fil1 {fill:#3A404A;fill-rule:nonzero}
    .fil17 {fill:#A21E00;fill-rule:nonzero}
    .fil12 {fill:url(#id0)}
    .fil6 {fill:url(#id1)}
    .fil22 {fill:url(#id2)}
    .fil20 {fill:url(#id3)}
    .fil16 {fill:url(#id4)}
    .fil3 {fill:url(#id5)}
    .fil23 {fill:url(#id6)}
    .fil11 {fill:url(#id7)}
    .fil8 {fill:url(#id8)}
    .fil2 {fill:url(#id9)}
    .fil19 {fill:url(#id10)}
    .fil18 {fill:url(#id11)}
    .fil9 {fill:url(#id12)}
    .fil14 {fill:url(#id13)}
    .fil7 {fill:url(#id14)}
    .fil4 {fill:url(#id15)}
    .fil21 {fill:url(#id16)}
    .fil10 {fill:url(#id17)}
    .fil5 {fill:url(#id18)}
    .fil15 {fill:url(#id19)}
   ]]>
  </style>
  <linearGradient id="id0" gradientUnits="objectBoundingBox" x1="50.0769%" y1="0%" x2="49.9231%" y2="162.687%">
   <stop offset="0" style="stop-opacity:1; stop-color:#92E5F7"/>
   <stop offset="0.478431" style="stop-opacity:1; stop-color:#499CC5"/>
   <stop offset="1" style="stop-opacity:1; stop-color:#005392"/>
  </linearGradient>
  <linearGradient id="id1" gradientUnits="objectBoundingBox" xlink:href="#id0" x1="133.721%" y1="43.0815%" x2="0%" y2="56.9185%">
  </linearGradient>
  <linearGradient id="id2" gradientUnits="objectBoundingBox" xlink:href="#id0" x1="100.411%" y1="50.6174%" x2="0%" y2="49.3826%">
  </linearGradient>
  <linearGradient id="id3" gradientUnits="objectBoundingBox" xlink:href="#id0" x1="57.4035%" y1="0%" x2="42.5965%" y2="105.586%">
  </linearGradient>
  <linearGradient id="id4" gradientUnits="objectBoundingBox" x1="9.69729%" y1="0%" x2="90.3033%" y2="102.243%">
   <stop offset="0" style="stop-opacity:1; stop-color:#BAD15A"/>
   <stop offset="0.478431" style="stop-opacity:1; stop-color:#5DAE64"/>
   <stop offset="1" style="stop-opacity:1; stop-color:#008B6F"/>
  </linearGradient>
  <linearGradient id="id5" gradientUnits="objectBoundingBox" xlink:href="#id0" x1="92.6099%" y1="0%" x2="7.39008%" y2="109.488%">
  </linearGradient>
  <linearGradient id="id6" gradientUnits="objectBoundingBox" xlink:href="#id0" x1="90.0651%" y1="0%" x2="9.93485%" y2="112.673%">
  </linearGradient>
  <linearGradient id="id7" gradientUnits="objectBoundingBox" xlink:href="#id0" x1="133.721%" y1="43.0815%" x2="0%" y2="56.9185%">
  </linearGradient>
  <linearGradient id="id8" gradientUnits="objectBoundingBox" xlink:href="#id0" x1="88.9706%" y1="0%" x2="11.0294%" y2="114.134%">
  </linearGradient>
  <linearGradient id="id9" gradientUnits="objectBoundingBox" xlink:href="#id0" x1="92.7035%" y1="0%" x2="7.29654%" y2="109.278%">
  </linearGradient>
  <linearGradient id="id10" gradientUnits="objectBoundingBox" xlink:href="#id0" x1="89.5723%" y1="0%" x2="10.4684%" y2="113.271%">
  </linearGradient>
  <linearGradient id="id11" gradientUnits="objectBoundingBox" xlink:href="#id0" x1="91.2193%" y1="103.3%" x2="8.78131%" y2="0%">
  </linearGradient>
  <linearGradient id="id12" gradientUnits="objectBoundingBox" xlink:href="#id0" x1="89.0301%" y1="0%" x2="11.0368%" y2="114.134%">
  </linearGradient>
  <linearGradient id="id13" gradientUnits="objectBoundingBox" xlink:href="#id0" x1="3.0647%" y1="103.737%" x2="96.9358%" y2="0%">
  </linearGradient>
  <linearGradient id="id14" gradientUnits="objectBoundingBox" xlink:href="#id0" x1="93.6508%" y1="0%" x2="6.42479%" y2="107.972%">
  </linearGradient>
  <linearGradient id="id15" gradientUnits="objectBoundingBox" xlink:href="#id0" x1="100%" y1="0%" x2="14.2857%" y2="85.7143%">
  </linearGradient>
  <linearGradient id="id16" gradientUnits="objectBoundingBox" xlink:href="#id0" x1="90.2121%" y1="0%" x2="9.95106%" y2="112.442%">
  </linearGradient>
  <linearGradient id="id17" gradientUnits="objectBoundingBox" xlink:href="#id0" x1="93.5946%" y1="0%" x2="6.48078%" y2="108.268%">
  </linearGradient>
  <linearGradient id="id18" gradientUnits="objectBoundingBox" xlink:href="#id0" x1="75%" y1="0%" x2="25%" y2="66.6667%">
  </linearGradient>
  <linearGradient id="id19" gradientUnits="objectBoundingBox" xlink:href="#id0" x1="0%" y1="15.2341%" x2="110.979%" y2="84.7659%">
  </linearGradient>
 </defs>
<symbol id="Symbol1" viewBox="19863 3107 895 187">
 <polygon class="fil0" points="19863,3290 19863,3112 19894,3112 19894,3263 19985,3263 19985,3290 "/>
 <path id="1" class="fil0" d="M20082 3107c26,0 47,9 63,28 15,17 23,39 23,66 0,26 -8,48 -23,66 -16,18 -37,27 -63,27 -26,0 -47,-9 -62,-27 -16,-18 -23,-40 -23,-66 0,-27 7,-49 23,-66 15,-19 36,-28 62,-28zm0 26c-18,0 -31,7 -41,21 -9,12 -13,28 -13,47 0,19 4,34 13,47 10,14 23,21 41,21 18,0 32,-7 42,-21 8,-13 13,-28 13,-47 0,-19 -5,-35 -13,-47 -10,-14 -24,-21 -42,-21z"/>
 <path id="2" class="fil0" d="M20352 3196l0 94 -20 0 -5 -21c-8,9 -16,16 -24,20 -9,3 -18,5 -29,5 -26,0 -47,-9 -63,-27 -15,-18 -23,-40 -23,-66 0,-27 8,-49 23,-66 16,-19 37,-28 63,-28 20,0 37,5 51,16 14,11 23,26 25,45l-30 0c-2,-11 -7,-20 -16,-26 -9,-6 -19,-9 -30,-9 -18,0 -32,7 -42,21 -8,12 -13,28 -13,47 0,19 5,34 13,47 10,14 24,21 42,21 15,0 28,-4 36,-13 9,-9 13,-21 14,-36l-48 0 0 -24 76 0z"/>
 <path id="3" class="fil0" d="M20462 3107c26,0 47,9 63,28 15,17 23,39 23,66 0,26 -8,48 -23,66 -16,18 -37,27 -63,27 -26,0 -47,-9 -63,-27 -15,-18 -22,-40 -22,-66 0,-27 7,-49 22,-66 16,-19 37,-28 63,-28zm0 26c-18,0 -32,7 -41,21 -9,12 -13,28 -13,47 0,19 4,34 13,47 9,14 23,21 41,21 18,0 32,-7 42,-21 8,-13 12,-28 12,-47 0,-19 -4,-35 -12,-47 -10,-14 -24,-21 -42,-21z"/>
 <path id="4" class="fil0" d="M20684 3209l0 -21c10,0 19,-2 26,-6 8,-5 12,-12 12,-22 0,-7 -2,-13 -7,-18 -5,-4 -12,-7 -20,-7 -9,0 -16,4 -22,11 -5,7 -7,15 -7,25l-28 0c0,-17 6,-32 16,-42 11,-12 24,-17 42,-17 14,0 27,3 37,11 12,9 18,21 18,35 0,19 -8,32 -25,38l0 0c10,2 18,7 23,15 6,8 9,18 9,29 0,16 -6,29 -19,39 -11,10 -26,15 -43,15 -20,0 -35,-6 -46,-17 -10,-11 -15,-26 -16,-44l29 0c0,11 2,19 8,26 6,7 14,11 25,11 10,0 18,-3 24,-9 6,-5 9,-13 9,-22 0,-22 -15,-32 -45,-30z"/>
</symbol>
<symbol id="Fm0-53-0" viewBox="19863 3107 895 187">
 <polygon class="fil0" points="19863,3290 19863,3112 19894,3112 19894,3263 19985,3263 19985,3290 "/>
 <path id="1" class="fil0" d="M20082 3107c26,0 47,9 63,28 15,17 23,39 23,66 0,26 -8,48 -23,66 -16,18 -37,27 -63,27 -26,0 -47,-9 -62,-27 -16,-18 -23,-40 -23,-66 0,-27 7,-49 23,-66 15,-19 36,-28 62,-28zm0 26c-18,0 -31,7 -41,21 -9,12 -13,28 -13,47 0,19 4,34 13,47 10,14 23,21 41,21 18,0 32,-7 42,-21 8,-13 13,-28 13,-47 0,-19 -5,-35 -13,-47 -10,-14 -24,-21 -42,-21z"/>
 <path id="2" class="fil0" d="M20352 3196l0 94 -20 0 -5 -21c-8,9 -16,16 -24,20 -9,3 -18,5 -29,5 -26,0 -47,-9 -63,-27 -15,-18 -23,-40 -23,-66 0,-27 8,-49 23,-66 16,-19 37,-28 63,-28 20,0 37,5 51,16 14,11 23,26 25,45l-30 0c-2,-11 -7,-20 -16,-26 -9,-6 -19,-9 -30,-9 -18,0 -32,7 -42,21 -8,12 -13,28 -13,47 0,19 5,34 13,47 10,14 24,21 42,21 15,0 28,-4 36,-13 9,-9 13,-21 14,-36l-48 0 0 -24 76 0z"/>
 <path id="3" class="fil0" d="M20462 3107c26,0 47,9 63,28 15,17 23,39 23,66 0,26 -8,48 -23,66 -16,18 -37,27 -63,27 -26,0 -47,-9 -63,-27 -15,-18 -22,-40 -22,-66 0,-27 7,-49 22,-66 16,-19 37,-28 63,-28zm0 26c-18,0 -32,7 -41,21 -9,12 -13,28 -13,47 0,19 4,34 13,47 9,14 23,21 41,21 18,0 32,-7 42,-21 8,-13 12,-28 12,-47 0,-19 -4,-35 -12,-47 -10,-14 -24,-21 -42,-21z"/>
 <path id="4" class="fil0" d="M20684 3209l0 -21c10,0 19,-2 26,-6 8,-5 12,-12 12,-22 0,-7 -2,-13 -7,-18 -5,-4 -12,-7 -20,-7 -9,0 -16,4 -22,11 -5,7 -7,15 -7,25l-28 0c0,-17 6,-32 16,-42 11,-12 24,-17 42,-17 14,0 27,3 37,11 12,9 18,21 18,35 0,19 -8,32 -25,38l0 0c10,2 18,7 23,15 6,8 9,18 9,29 0,16 -6,29 -19,39 -11,10 -26,15 -43,15 -20,0 -35,-6 -46,-17 -10,-11 -15,-26 -16,-44l29 0c0,11 2,19 8,26 6,7 14,11 25,11 10,0 18,-3 24,-9 6,-5 9,-13 9,-22 0,-22 -15,-32 -45,-30z"/>
</symbol>
 <g id="Layer_x0020_1">
  <metadata id="CorelCorpID_0Corel-Layer"/>
  <polygon class="fil1" points="8308,6454 8308,2749 9118,2749 10836,5077 10836,2749 11625,2749 11625,6454 10863,6454 9097,4038 9097,6454 "/>
  <path id="1" class="fil1" d="M12224 5618c-179,-292 -269,-629 -269,-1012 0,-382 90,-720 269,-1014 179,-294 418,-519 717,-673 299,-154 629,-231 993,-231 184,0 358,22 521,66 163,44 307,105 430,184 124,79 233,166 328,259 93,95 177,199 249,314l-651 357c-92,-139 -215,-256 -369,-348 -154,-91 -323,-138 -508,-138 -338,0 -618,116 -838,347 -219,232 -330,525 -330,877 0,354 111,646 330,875 220,231 500,346 838,346 154,0 302,-29 444,-85 142,-57 255,-124 338,-200l0 -443 -972 0 0 -695 1761 0 0 1428c-412,460 -936,689 -1571,689 -364,0 -694,-78 -993,-232 -299,-155 -538,-378 -717,-671z"/>
  <path id="2" class="fil1" d="M15909 6454l0 -3705 1734 0c379,0 682,111 909,333 227,222 341,510 341,860 0,155 -24,300 -71,431 -47,132 -110,242 -190,330 -79,88 -165,160 -259,216 -93,58 -193,98 -297,123l838 1412 -911 0 -727 -1316 -578 0 0 1316 -789 0zm789 -2011l832 0c160,0 291,-45 396,-137 104,-90 155,-214 155,-369 0,-150 -51,-270 -155,-359 -105,-90 -236,-135 -396,-135l-832 0 0 1000z"/>
  <polygon id="3" class="fil1" points="19257,6454 19257,2749 21879,2749 21879,3443 20045,3443 20045,4221 21834,4221 21834,4916 20045,4916 20045,5760 21879,5760 21879,6454 "/>
  <path id="4" class="fil1" d="M21883 6454l1426 -3705 990 0 1427 3705 -895 0 -234 -627 -1587 0 -233 627 -894 0zm1342 -1322l1156 0 -578 -1594 -578 1594z"/>
  <path class="fil1" d="M361 4600c0,-373 87,-706 260,-999 174,-292 411,-518 711,-677 300,-159 635,-238 1007,-238 195,0 377,25 543,74 168,49 313,117 437,204 124,87 232,181 323,283 91,101 172,214 240,338l-678 335c-80,-157 -198,-285 -355,-387 -158,-102 -328,-153 -510,-153 -338,0 -618,116 -837,346 -220,231 -330,523 -330,875 0,352 110,645 330,876 219,232 499,348 837,348 182,0 352,-51 510,-154 157,-103 275,-233 355,-389l678 330c-70,125 -151,237 -240,338 -89,102 -197,198 -322,286 -124,88 -270,157 -438,207 -166,51 -348,76 -543,76 -277,0 -537,-47 -780,-141 -243,-94 -454,-224 -630,-390 -176,-165 -315,-367 -416,-607 -101,-240 -152,-500 -152,-781z"/>
  <path class="fil2" d="M7180 6131c11,-8 22,-16 32,-24 -10,8 -21,16 -32,24l0 0z"/>
  <path class="fil3" d="M4953 6130c-11,-7 -21,-15 -32,-23 11,8 21,16 32,23z"/>
  <path class="fil4" d="M4953 6131l0 0 0 0 0 0 0 0zm0 0l0 0m0 0c0,0 0,0 0,0l0 0 0 -1c0,0 0,1 0,1zm0 0c0,0 0,0 0,0l0 0c0,0 0,0 0,0zm0 0c0,0 0,0 0,0l0 0c0,0 0,0 0,0z"/>
  <path class="fil5" d="M7180 6131l0 0c0,0 0,0 0,0l0 0z"/>
  <path class="fil6" d="M5362 4867c-4,-12 -9,-24 -13,-36l0 0c-4,-13 -8,-26 -11,-39l0 0c6,26 15,51 24,75z"/>
  <path class="fil7" d="M5618 3991c1,0 2,-1 2,-2l0 0c0,1 -1,2 -2,2zm-17 14c5,-5 11,-9 17,-14l0 0c-6,5 -12,9 -17,14z"/>
  <path class="fil8" d="M5630 3983c7,-5 15,-10 22,-16 -8,5 -15,11 -22,16l0 0z"/>
  <path class="fil9" d="M6504 3983c-8,-5 -15,-11 -23,-16 8,6 15,11 23,16l0 0z"/>
  <path class="fil10" d="M6533 4005c-7,-6 -13,-11 -20,-16 7,5 13,11 20,16z"/>
  <path class="fil11" d="M6784 4831c-4,12 -8,24 -13,36 10,-24 18,-49 25,-75 -4,13 -8,26 -12,39l0 0z"/>
  <path class="fil12" d="M6063 5352l0 0c-11,0 -23,0 -35,-1l0 0c11,1 23,1 35,1zm0 0l1 0 0 0 0 0 1 0 0 0 0 0 0 0 0 0 0 0 0 0 1 0 0 0 0 0 0 0 0 0 0 0 1 0"/>
  <path class="fil13" d="M6067 5352l0 0 0 0 0 0 0 0 0 0 1 0 0 0 0 0 0 0 0 0 0 0 1 0 0 0 0 0 0 0 0 0 1 0 0 0c12,0 24,0 35,-1 -11,1 -23,1 -35,1"/>
  <path class="fil14" d="M4742 4028l0 2c0,47 3,94 8,140l0 0c30,286 152,545 335,747l0 0c136,150 307,269 500,344l0 0c138,54 287,86 443,90l0 0c-305,-15 -562,-212 -666,-484l0 0c-9,-24 -18,-49 -24,-75l0 0c-44,-149 -60,-300 -51,-448l0 0c12,-206 72,-405 173,-581l0 0c135,-237 344,-432 607,-550l0 0c43,-19 87,-36 133,-51l0 0c303,-99 616,-82 891,26l0 0c357,140 650,432 778,824l0 0c0,3 1,5 2,8l0 0c0,0 0,-1 0,-1l0 0c-239,-748 -932,-1294 -1755,-1315l0 0c-17,-1 -33,-1 -49,-1l0 0c-413,0 -782,189 -1025,485l0 0c-187,229 -300,521 -300,840z"/>
  <path class="fil15" d="M6200 3162c-46,15 -90,32 -133,51l0 0c-263,118 -472,313 -607,550l0 0c-101,176 -161,375 -173,581l0 0c-9,148 7,299 51,448l0 0c-17,-62 -26,-127 -26,-194l0 0c0,-241 113,-455 289,-593l0 0c6,-6 13,-11 19,-16l0 0c1,0 2,-1 3,-2l0 0c2,-1 5,-3 7,-4l0 0c7,-5 14,-11 22,-16l0 0c130,-89 270,-152 415,-189l0 0c200,-53 408,-57 606,-15l0 0c267,55 518,193 711,407l0 0c31,35 61,71 89,110l0 0c188,258 268,561 251,856l0 0c-22,370 -198,728 -512,971l0 0c455,-346 749,-893 749,-1509 0,-202 -31,-396 -90,-579l0 0c0,0 0,1 0,1l0 0c-1,-3 -2,-5 -2,-8l0 0c-128,-392 -421,-684 -778,-824l0 0c-152,-59 -315,-91 -482,-91l0 0c-136,0 -274,21 -409,65l0 0z"/>
  <path class="fil13" d="M6067 2703l-1 0 0 0 0 0 0 0 -1 0 0 0 0 0 0 0 0 0 -1 0 0 0 0 0 0 0 -1 0 0 0 0 0 -1 0c-15,0 -30,1 -44,1l0 0c14,0 29,-1 43,-1l1 0"/>
  <path class="fil16" d="M4264 4014c0,0 0,0 0,0l0 0c-127,392 -61,800 145,1122l0 0c160,249 403,447 706,545l0 0c46,15 92,27 138,37l0 0c281,59 565,24 814,-88l0 0c185,-83 351,-209 482,-369l0 0c94,-114 170,-247 222,-394 -104,272 -361,469 -666,484l0 0c-12,1 -25,1 -38,1l0 0c-13,0 -26,0 -39,-1l0 0c-156,-4 -305,-36 -443,-90l0 0c-193,-75 -364,-194 -500,-344l0 0c-183,-202 -305,-461 -335,-747l0 0c-5,-47 -8,-94 -8,-142l0 0c0,-319 113,-611 300,-840l0 0c234,-284 583,-470 976,-484 -821,21 -1513,564 -1754,1310l0 0z"/>
  <path class="fil17" d="M6018 2704c16,0 32,-1 49,-1 -17,0 -33,1 -49,1z"/>
  <path class="fil18" d="M4264 4014c0,0 0,0 0,0l0 0c-127,392 -61,800 145,1122l0 0c160,249 403,447 706,545l0 0c46,15 92,27 138,37l0 0c281,59 565,24 814,-88l0 0c185,-83 351,-209 482,-369l0 0c94,-114 170,-247 222,-394 -104,272 -361,469 -666,484l0 0c-12,1 -25,1 -38,1l0 0c-13,0 -26,0 -39,-1l0 0c-156,-4 -305,-36 -443,-90l0 0c-193,-75 -364,-194 -500,-344l0 0c-183,-202 -305,-461 -335,-747l0 0c-5,-47 -8,-94 -8,-142l0 0c0,-319 113,-611 300,-840l0 0c234,-284 583,-470 976,-484 -821,21 -1513,564 -1754,1310l0 0z"/>
  <path class="fil19" d="M4990 6156c-13,-8 -25,-17 -37,-25 12,8 24,17 37,25l0 0z"/>
  <path class="fil20" d="M6067 3778c-145,37 -285,100 -415,189l0 0c119,-78 261,-124 415,-124l0 0c153,0 295,46 414,124l0 0c8,5 15,11 23,16l0 0c2,1 4,3 6,4l0 0c1,1 2,2 3,2l0 0c7,5 13,10 20,16l0 0c127,96 232,212 314,339l0 0c111,174 180,371 201,573l0 0c30,271 -24,552 -167,801l0 0c-24,41 -50,81 -78,120l0 0c-187,257 -450,428 -736,502l0 0c-357,94 -750,38 -1077,-184l0 0c306,212 676,336 1077,336l0 0c400,0 771,-124 1077,-336l0 0c12,-8 24,-17 36,-25l0 0c0,0 0,0 0,0l0 0c334,-243 521,-613 544,-995l0 0c17,-295 -63,-598 -251,-856l0 0c-28,-39 -58,-75 -89,-110l0 0c-193,-214 -444,-352 -711,-407l0 0c-89,-19 -180,-29 -271,-29l0 0c-112,0 -225,15 -335,44l0 0z"/>
  <path class="fil21" d="M5623 3987c-1,1 -2,2 -3,2 4,-2 7,-4 10,-6l0 0c-2,1 -5,3 -7,4l0 0z"/>
  <path class="fil22" d="M6821 4598c0,67 -9,132 -25,194l0 0c-7,26 -15,51 -25,75l0 0c-52,147 -128,280 -222,394l0 0c-131,160 -297,286 -482,369l0 0c-249,112 -533,147 -814,88l0 0c-46,-10 -92,-22 -138,-37l0 0c-303,-98 -546,-296 -706,-545l0 0c-206,-322 -272,-730 -145,-1122l0 0c0,0 0,0 0,0l0 0c-60,184 -92,380 -92,584l0 0c0,616 294,1162 749,1509l0 0c11,8 21,16 32,23l0 0c0,1 0,1 0,1l0 0c334,242 743,306 1114,209l0 0c286,-74 549,-245 736,-502l0 0c28,-39 54,-79 78,-120l0 0c143,-249 197,-530 167,-801l0 0c-21,-202 -90,-399 -201,-573l0 0c-82,-127 -187,-243 -314,-339l0 0c175,138 288,352 288,593l0 0z"/>
  <path class="fil23" d="M6513 3989c-1,0 -2,-1 -3,-2l0 0c-2,-1 -4,-3 -6,-4l0 0c3,2 6,4 9,6z"/>
  <path class="fil2" d="M7180 6131c11,-8 22,-16 32,-24 -10,8 -21,16 -32,24l0 0z"/>
  <path class="fil3" d="M4953 6130c-11,-7 -21,-15 -32,-23 11,8 21,16 32,23z"/>
  <path class="fil4" d="M4953 6131l0 0 0 0 0 0 0 0zm0 0l0 0m0 0c0,0 0,0 0,0l0 0 0 -1c0,0 0,1 0,1zm0 0c0,0 0,0 0,0l0 0c0,0 0,0 0,0zm0 0c0,0 0,0 0,0l0 0c0,0 0,0 0,0z"/>
  <path class="fil5" d="M7180 6131l0 0c0,0 0,0 0,0l0 0z"/>
  <path class="fil6" d="M5362 4867c-4,-12 -9,-24 -13,-36l0 0c-4,-13 -8,-26 -11,-39l0 0c6,26 15,51 24,75z"/>
  <path class="fil7" d="M5618 3991c1,0 2,-1 2,-2l0 0c0,1 -1,2 -2,2zm-17 14c5,-5 11,-9 17,-14l0 0c-6,5 -12,9 -17,14z"/>
  <path class="fil8" d="M5630 3983c7,-5 15,-10 22,-16 -8,5 -15,11 -22,16l0 0z"/>
  <path class="fil9" d="M6504 3983c-8,-5 -15,-11 -23,-16 8,6 15,11 23,16l0 0z"/>
  <path class="fil10" d="M6533 4005c-7,-6 -13,-11 -20,-16 7,5 13,11 20,16z"/>
  <path class="fil11" d="M6784 4831c-4,12 -8,24 -13,36 10,-24 18,-49 25,-75 -4,13 -8,26 -12,39l0 0z"/>
  <path class="fil12" d="M6063 5352l0 0c-11,0 -23,0 -35,-1l0 0c11,1 23,1 35,1zm0 0l1 0 0 0 0 0 1 0 0 0 0 0 0 0 0 0 0 0 0 0 1 0 0 0 0 0 0 0 0 0 0 0 1 0"/>
  <path class="fil13" d="M6067 5352l0 0 0 0 0 0 0 0 0 0 1 0 0 0 0 0 0 0 0 0 0 0 1 0 0 0 0 0 0 0 0 0 1 0 0 0c12,0 24,0 35,-1 -11,1 -23,1 -35,1"/>
  <path class="fil14" d="M4742 4028l0 2c0,47 3,94 8,140l0 0c30,286 152,545 335,747l0 0c136,150 307,269 500,344l0 0c138,54 287,86 443,90l0 0c-305,-15 -562,-212 -666,-484l0 0c-9,-24 -18,-49 -24,-75l0 0c-44,-149 -60,-300 -51,-448l0 0c12,-206 72,-405 173,-581l0 0c135,-237 344,-432 607,-550l0 0c43,-19 87,-36 133,-51l0 0c303,-99 616,-82 891,26l0 0c357,140 650,432 778,824l0 0c0,3 1,5 2,8l0 0c0,0 0,-1 0,-1l0 0c-239,-748 -932,-1294 -1755,-1315l0 0c-17,-1 -33,-1 -49,-1l0 0c-413,0 -782,189 -1025,485l0 0c-187,229 -300,521 -300,840z"/>
  <path class="fil15" d="M6200 3162c-46,15 -90,32 -133,51l0 0c-263,118 -472,313 -607,550l0 0c-101,176 -161,375 -173,581l0 0c-9,148 7,299 51,448l0 0c-17,-62 -26,-127 -26,-194l0 0c0,-241 113,-455 289,-593l0 0c6,-6 13,-11 19,-16l0 0c1,0 2,-1 3,-2l0 0c2,-1 5,-3 7,-4l0 0c7,-5 14,-11 22,-16l0 0c130,-89 270,-152 415,-189l0 0c200,-53 408,-57 606,-15l0 0c267,55 518,193 711,407l0 0c31,35 61,71 89,110l0 0c188,258 268,561 251,856l0 0c-22,370 -198,728 -512,971l0 0c455,-346 749,-893 749,-1509 0,-202 -31,-396 -90,-579l0 0c0,0 0,1 0,1l0 0c-1,-3 -2,-5 -2,-8l0 0c-128,-392 -421,-684 -778,-824l0 0c-152,-59 -315,-91 -482,-91l0 0c-136,0 -274,21 -409,65l0 0z"/>
  <path class="fil13" d="M6067 2703l-1 0 0 0 0 0 0 0 -1 0 0 0 0 0 0 0 0 0 -1 0 0 0 0 0 0 0 -1 0 0 0 0 0 -1 0c-15,0 -30,1 -44,1l0 0c14,0 29,-1 43,-1l1 0"/>
  <path class="fil16" d="M4264 4014c0,0 0,0 0,0l0 0c-127,392 -61,800 145,1122l0 0c160,249 403,447 706,545l0 0c46,15 92,27 138,37l0 0c281,59 565,24 814,-88l0 0c185,-83 351,-209 482,-369l0 0c94,-114 170,-247 222,-394 -104,272 -361,469 -666,484l0 0c-12,1 -25,1 -38,1l0 0c-13,0 -26,0 -39,-1l0 0c-156,-4 -305,-36 -443,-90l0 0c-193,-75 -364,-194 -500,-344l0 0c-183,-202 -305,-461 -335,-747l0 0c-5,-47 -8,-94 -8,-142l0 0c0,-319 113,-611 300,-840l0 0c234,-284 583,-470 976,-484 -821,21 -1513,564 -1754,1310l0 0z"/>
  <path class="fil17" d="M6018 2704c16,0 32,-1 49,-1 -17,0 -33,1 -49,1z"/>
  <path class="fil18" d="M4264 4014c0,0 0,0 0,0l0 0c-127,392 -61,800 145,1122l0 0c160,249 403,447 706,545l0 0c46,15 92,27 138,37l0 0c281,59 565,24 814,-88l0 0c185,-83 351,-209 482,-369l0 0c94,-114 170,-247 222,-394 -104,272 -361,469 -666,484l0 0c-12,1 -25,1 -38,1l0 0c-13,0 -26,0 -39,-1l0 0c-156,-4 -305,-36 -443,-90l0 0c-193,-75 -364,-194 -500,-344l0 0c-183,-202 -305,-461 -335,-747l0 0c-5,-47 -8,-94 -8,-142l0 0c0,-319 113,-611 300,-840l0 0c234,-284 583,-470 976,-484 -821,21 -1513,564 -1754,1310l0 0z"/>
  <path class="fil19" d="M4990 6156c-13,-8 -25,-17 -37,-25 12,8 24,17 37,25l0 0z"/>
  <path class="fil20" d="M6067 3778c-145,37 -285,100 -415,189l0 0c119,-78 261,-124 415,-124l0 0c153,0 295,46 414,124l0 0c8,5 15,11 23,16l0 0c2,1 4,3 6,4l0 0c1,1 2,2 3,2l0 0c7,5 13,10 20,16l0 0c127,96 232,212 314,339l0 0c111,174 180,371 201,573l0 0c30,271 -24,552 -167,801l0 0c-24,41 -50,81 -78,120l0 0c-187,257 -450,428 -736,502l0 0c-357,94 -750,38 -1077,-184l0 0c306,212 676,336 1077,336l0 0c400,0 771,-124 1077,-336l0 0c12,-8 24,-17 36,-25l0 0c0,0 0,0 0,0l0 0c334,-243 521,-613 544,-995l0 0c17,-295 -63,-598 -251,-856l0 0c-28,-39 -58,-75 -89,-110l0 0c-193,-214 -444,-352 -711,-407l0 0c-89,-19 -180,-29 -271,-29l0 0c-112,0 -225,15 -335,44l0 0z"/>
  <path class="fil21" d="M5623 3987c-1,1 -2,2 -3,2 4,-2 7,-4 10,-6l0 0c-2,1 -5,3 -7,4l0 0z"/>
  <path class="fil22" d="M6821 4598c0,67 -9,132 -25,194l0 0c-7,26 -15,51 -25,75l0 0c-52,147 -128,280 -222,394l0 0c-131,160 -297,286 -482,369l0 0c-249,112 -533,147 -814,88l0 0c-46,-10 -92,-22 -138,-37l0 0c-303,-98 -546,-296 -706,-545l0 0c-206,-322 -272,-730 -145,-1122l0 0c0,0 0,0 0,0l0 0c-60,184 -92,380 -92,584l0 0c0,616 294,1162 749,1509l0 0c11,8 21,16 32,23l0 0c0,1 0,1 0,1l0 0c334,242 743,306 1114,209l0 0c286,-74 549,-245 736,-502l0 0c28,-39 54,-79 78,-120l0 0c143,-249 197,-530 167,-801l0 0c-21,-202 -90,-399 -201,-573l0 0c-82,-127 -187,-243 -314,-339l0 0c175,138 288,352 288,593l0 0z"/>
  <path class="fil23" d="M6513 3989c-1,0 -2,-1 -3,-2l0 0c-2,-1 -4,-3 -6,-4l0 0c3,2 6,4 9,6z"/>
  <path class="fil24" d="M13747 954c0,67 -12,129 -35,186 -23,58 -56,107 -98,149 -52,52 -114,92 -185,118 -71,26 -161,39 -269,39l-201 0 0 564 -202 0 0 -1514 411 0c91,0 167,8 230,23 63,15 119,39 168,71 58,39 102,87 134,145 31,57 47,130 47,219zm-211 4c0,-51 -9,-96 -27,-135 -18,-38 -46,-69 -83,-94 -32,-21 -69,-36 -111,-45 -41,-9 -94,-13 -157,-13l-199 0 0 600 169 0c81,0 147,-7 198,-22 50,-14 92,-37 123,-69 32,-32 54,-66 68,-102 13,-35 19,-76 19,-120z"/>
  <path id="1" class="fil24" d="M14915 1443c0,185 -48,331 -142,438 -95,107 -222,161 -381,161 -161,0 -289,-54 -383,-161 -95,-107 -142,-253 -142,-438 0,-185 47,-331 142,-438 94,-107 222,-161 383,-161 159,0 286,54 381,161 94,107 142,253 142,438zm-198 0c0,-146 -29,-255 -86,-326 -58,-71 -137,-107 -239,-107 -104,0 -184,36 -241,107 -58,71 -86,180 -86,326 0,142 29,249 86,322 58,74 138,110 241,110 101,0 181,-36 238,-109 58,-72 87,-180 87,-323z"/>
  <polygon id="2" class="fil24" points="16642,875 16346,2010 16169,2010 15876,1135 15586,2010 15410,2010 15111,875 15309,875 15519,1754 15803,875 15961,875 16252,1754 16450,875 "/>
  <path id="3" class="fil24" d="M17868 1463l-838 0c0,69 11,130 32,182 21,51 49,94 86,127 35,32 77,56 126,73 48,16 102,24 160,24 77,0 155,-15 233,-46 78,-31 134,-62 168,-92l10 0 0 209c-64,27 -130,50 -197,68 -67,18 -138,27 -212,27 -188,0 -335,-51 -441,-152 -106,-102 -159,-247 -159,-434 0,-186 51,-333 153,-442 101,-109 234,-163 400,-163 153,0 271,45 354,134 83,89 125,216 125,381l0 104zm-186 -146c0,-100 -26,-178 -76,-233 -49,-54 -125,-82 -227,-82 -103,0 -185,30 -245,90 -61,61 -95,135 -104,225l652 0z"/>
  <path id="4" class="fil24" d="M18867 1083l-10 0c-29,-6 -56,-11 -83,-14 -27,-3 -59,-4 -96,-4 -59,0 -116,13 -171,39 -55,26 -108,60 -159,101l0 805 -191 0 0 -1135 191 0 0 168c76,-61 143,-104 202,-130 58,-25 117,-38 177,-38 34,0 58,1 73,2 15,2 37,5 67,10l0 196z"/>
  <path id="5" class="fil24" d="M19998 1463l-838 0c0,69 11,130 32,182 21,51 50,94 86,127 36,32 78,56 126,73 48,16 102,24 160,24 77,0 155,-15 234,-46 78,-31 134,-62 167,-92l10 0 0 209c-64,27 -130,50 -197,68 -67,18 -138,27 -212,27 -188,0 -335,-51 -441,-152 -106,-102 -158,-247 -158,-434 0,-186 50,-333 152,-442 101,-109 234,-163 400,-163 153,0 271,45 354,134 83,89 125,216 125,381l0 104zm-185 -146c-1,-100 -27,-178 -77,-233 -49,-54 -125,-82 -227,-82 -103,0 -184,30 -245,90 -61,61 -95,135 -104,225l653 0z"/>
  <path id="6" class="fil24" d="M21210 2010l-192 0 0 -119c-55,48 -112,85 -172,111 -60,27 -125,40 -195,40 -136,0 -244,-52 -324,-157 -79,-104 -119,-249 -119,-434 0,-96 14,-181 41,-256 27,-76 65,-140 111,-193 47,-51 101,-90 162,-118 62,-27 125,-40 191,-40 60,0 113,6 159,19 46,12 95,32 146,58l0 -494 192 0 0 1583zm-192 -278l0 -650c-52,-23 -98,-39 -138,-48 -41,-9 -86,-13 -134,-13 -107,0 -191,37 -251,111 -60,75 -89,180 -89,317 0,134 23,236 69,307 46,69 120,104 222,104 54,0 110,-12 165,-36 56,-24 108,-54 156,-92z"/>
  <path id="7" class="fil24" d="M23477 1544c0,76 -14,142 -42,200 -29,57 -67,105 -116,142 -56,45 -119,77 -187,96 -68,19 -155,28 -260,28l-538 0 0 -1514 449 0c111,0 193,4 249,12 54,8 107,25 157,51 56,29 96,66 121,112 26,46 38,101 38,164 0,72 -18,133 -55,183 -36,51 -85,91 -146,122l0 8c102,21 183,66 242,135 59,69 88,156 88,261zm-339 -681c0,-36 -6,-66 -19,-91 -12,-25 -31,-45 -59,-61 -31,-18 -70,-29 -116,-34 -45,-4 -101,-6 -168,-6l-240 0 0 433 260 0c63,0 113,-3 151,-9 37,-7 71,-20 103,-40 32,-20 55,-46 68,-78 13,-32 20,-70 20,-114zm129 688c0,-60 -9,-109 -27,-144 -19,-36 -52,-67 -100,-91 -33,-17 -72,-28 -118,-33 -47,-6 -104,-8 -170,-8l-316 0 0 560 266 0c88,0 161,-4 217,-13 56,-9 102,-26 138,-50 38,-26 66,-57 84,-90 17,-34 26,-77 26,-131z"/>
  <polygon id="8" class="fil24" points="24728,875 24066,2429 23863,2429 24073,1956 23620,875 23828,875 24176,1717 24529,875 "/>
 </g>
</svg>
