<?xml version="1.0" standalone="no"?>
<!DOCTYPE svg PUBLIC "-//W3C//DTD SVG 1.1//EN" "http://www.w3.org/Graphics/SVG/1.1/DTD/svg11.dtd" >
<svg xmlns="http://www.w3.org/2000/svg">
<metadata>Generated by IcoMoon</metadata>
<defs>
<font id="icomoon" horiz-adv-x="1024">
<font-face units-per-em="1024" ascent="960" descent="-64" />
<missing-glyph horiz-adv-x="1024" />
<glyph unicode="&#x20;" d="" horiz-adv-x="512" />
<glyph unicode="&#xe600;" d="M629.623 242.927l103.856 99.009c5.052 4.824 7.623 10.308 7.737 16.634 0.205 6.281-2.185 11.947-7.054 17.044l-182.386 189.121 103.856 99.009c7.919 7.555 9.899 16.293 5.848 26.214l0.046 0.046c-3.709 9.535-10.991 14.632-21.914 15.178l-338.967 6.963c-7.077-0.546-12.789-2.913-17.112-7.031-4.346-4.142-6.918-9.671-7.782-16.68l-7.236-335.918c0.523-7.714 2.89-13.744 7.031-18.091 4.824-4.961 10.422-7.578 16.771-7.691 6.372-0.182 12.038 2.253 17.135 7.077l120.058 113.71 166.184-203.958c4.87-4.961 28.831-5.484 33.929-0.637z" />
<glyph unicode="&#xe601;" d="M217.155 470.045l294.845-222.296 304.478 222.296v-101.955l-304.478-236.074-294.845 236.074zM217.155 690.489l294.845-222.296 304.478 222.296v-101.955l-304.478-236.074-294.845 236.074z" />
<glyph unicode="&#xe602;" d="M795.61 416.162v337.647c0 3.53-1.1 6.583-3.354 9.161-2.203 2.579-4.831 3.854-7.859 3.854h-561.462c-3.029 0-5.657-1.301-7.884-3.854-2.227-2.579-3.329-5.631-3.329-9.161v-337.647c0-0.525-0.601-37.019 0.425-69.758 111.031-1.577 483.97-0.876 583.212 0.8 1.352 31.262 0.251 68.455 0.251 68.957zM840.512 753.835v-441.545c0-17.846-5.506-33.139-16.47-45.88-10.964-12.715-24.228-19.048-39.647-19.048h-190.924c0-10.012 1.852-20.5 5.631-31.462 3.754-10.938 7.484-20.549 11.238-28.809 3.705-8.235 5.606-14.142 5.606-17.67 0-7.009-2.227-13.090-6.658-18.246-4.455-5.13-9.737-7.734-15.819-7.734h-179.661c-6.082 0-11.338 2.603-15.794 7.734-4.43 5.156-6.658 11.212-6.658 18.246 0 3.83 1.852 9.762 5.581 17.846 3.754 8.159 7.509 17.621 11.238 28.434 3.754 10.812 5.631 21.375 5.631 31.687h-190.901c-15.444 0-28.659 6.333-39.647 19.048-10.988 12.741-16.494 28.033-16.494 45.88v441.521c0 17.87 5.506 33.139 16.494 45.854s24.204 19.072 39.647 19.072h561.437c15.468 0 28.683-6.357 39.672-19.072 10.964-12.715 16.47-27.983 16.494-45.854v0zM328.034 454.708c0-20.849-16.344-37.769-36.518-37.769s-36.518 16.92-36.518 37.769c0 20.849 16.344 37.769 36.518 37.769s36.518-16.92 36.518-37.769zM495.98 655.719c0-20.849-16.344-37.745-36.493-37.745s-36.493 16.894-36.493 37.745c0 20.849 16.344 37.745 36.493 37.745s36.493-16.894 36.493-37.745zM580.131 447.2c0-20.849-16.344-37.769-36.518-37.769s-36.518 16.92-36.518 37.769c0 20.849 16.344 37.769 36.518 37.769s36.518-16.92 36.518-37.769zM751.332 661.501c0-20.849-16.344-37.769-36.493-37.769s-36.493 16.92-36.493 37.769c0 20.849 16.344 37.769 36.493 37.769s36.493-16.92 36.493-37.769zM468.173 656.521c6.558-6.683 7.233-17.546 1.477-24.253l-141.917-165.821c-5.732-6.708-15.718-6.732-22.275-0.026v0c-6.558 6.683-7.208 17.546-1.477 24.253l141.892 165.821c5.783 6.683 15.718 6.708 22.301 0.026v0zM708.781 651.74c6.983-6.182 8.11-17.295 2.453-24.879l-138.813-186.845c-5.631-7.559-15.844-8.71-22.778-2.553v0c-6.933 6.157-8.059 17.32-2.427 24.854l138.789 186.895c5.631 7.559 15.819 8.71 22.778 2.528v0zM551.321 468.123c3.629-10.137-0.275-21.275-8.71-24.879v0c-8.459-3.629-18.246 1.702-21.876 11.838l-59.896 167.397c-3.629 10.112 0.275 21.249 8.71 24.854v0c8.435 3.605 18.221-1.702 21.852-11.864l59.921-167.348z" />
<glyph unicode="&#xe603;" d="M466.352 735.881l30.128 64.193 24.326-47.787-5.712-43.122-260.528-563.587-76.982 1.957zM471.927 710.144l2.321 5.894 46.558 36.25 314.186-611.487-67.538 0.592zM177.084 146.216l29.446 52.907 599.654-1.206 28.809-57.116z" />
<glyph unicode="&#xe604;" d="M793.623 442.561v265.603c0 2.753-1.092 5.143-3.277 7.168-2.162 2.002-4.688 3.026-7.669 3.026h-546.042c-2.958 0-5.53-1.024-7.691-3.026-2.162-2.048-3.254-4.415-3.254-7.168v-265.671c0-0.387-1.616-59.483-1.616-59.483s538.192-5.598 569.936-3.391c0.455 17.749-0.387 62.145-0.387 62.942zM837.313 708.187v-347.386c0-14.017-5.348-26.032-16.043-36.090-10.65-9.99-23.575-14.996-38.548-14.996h-185.685c-20.503-1.343-151.962-3.55-174.74 0h-185.64c-15.041 0-27.853 5.006-38.571 14.996-10.672 10.035-16.020 22.073-16.020 36.090v347.386c0 14.040 5.348 26.055 16.020 36.068 10.695 9.99 23.552 14.996 38.571 14.996h222.686c0 0 25.486 43.486 37.706 43.486s40.755-43.486 40.755-43.486h244.895c15.019 0 27.853-5.006 38.548-14.996 10.672-9.99 16.043-22.027 16.065-36.068v0zM824.206 261.131c0-19.979-15.064-36.181-33.655-36.181h-562.267c-18.569 0-33.633 16.202-33.633 36.181v0c0 20.002 15.064 36.204 33.633 36.204h562.267c18.591 0 33.655-16.225 33.655-36.204v0zM475.614 177.664c0-13.926-10.49-25.236-23.438-25.236v0c-12.948 0-23.438 11.332-23.438 25.236v17.613c0 13.858 10.49 25.168 23.438 25.168v0c12.948 0 23.438-11.31 23.438-25.168v-17.613zM606.049 177.664c0-13.926-10.468-25.236-23.415-25.236v0c-12.948 0-23.438 11.332-23.438 25.236v17.613c0 13.858 10.49 25.168 23.438 25.168v0c12.948 0 23.415-11.31 23.415-25.168v-17.613z" />
<glyph unicode="&#xe606;" d="M816.356 425.244l-304.356 229.444-314.3-229.444v105.244l314.3 243.666 304.356-243.666zM816.356 197.689l-304.356 229.467-314.3-229.467v105.244l314.3 243.666 304.356-243.666z" />
<glyph unicode="&#xe607;" d="M285.901 146.853l-62.35 58.095 504.377 541.309 62.35-58.095-504.377-541.309z" />
<glyph unicode="&#xe60b;" d="M235.293 707.889h574.086v-65.090h-574.086v65.090zM235.293 206.645h574.086v-65.090h-574.086v65.090zM235.293 707.889h65.090v-566.334h-65.090v566.334zM744.312 707.889h65.090v-566.334h-65.090v566.334z" />
<glyph unicode="&#xe60d;" d="M714.911 588.379c0-63.169-19.706-118.079-59.346-164.796-39.504-46.717-88.428-73.478-146.637-80.373v-56.525h103.014c7.031 0 13.039-2.708 18.136-8.124 5.143-5.348 7.646-11.878 7.623-19.297 0-7.441-2.48-13.835-7.623-19.319-5.097-5.461-11.127-8.124-18.136-8.124h-257.479c-6.986 0-13.039 2.662-18.159 8.101-5.097 5.461-7.646 11.856-7.646 19.319 0 7.396 2.571 13.926 7.646 19.297 5.074 5.416 11.127 8.124 18.159 8.124h102.992v56.525c-58.231 6.918-107.088 33.655-146.637 80.373-39.572 46.717-59.369 101.626-59.392 164.796h51.541c0-52.907 17.613-98.099 52.884-135.646 35.317-37.569 77.778-56.366 127.363-56.366 49.653 0 92.069 18.796 127.34 56.366 35.294 37.592 52.884 82.739 52.884 135.646h51.473zM611.942 807.697v-219.364c0-37.729-12.652-69.973-37.842-96.87-25.19-26.852-55.501-40.277-90.954-40.277-35.408 0-65.695 13.426-90.908 40.277-25.259 26.897-37.774 59.142-37.774 96.87v219.364c0 37.751 12.538 70.019 37.774 96.848 25.213 26.829 55.501 40.3 90.908 40.3 35.43 0 65.741-13.449 90.954-40.3s37.842-59.096 37.842-96.848v0zM792.849 370.836c0 0 74.502 242.438 8.42 581.564 26.647-324.562-8.42-581.564-8.42-581.564zM746.701 419.442c0 0 68.79 224.461 8.715 538.351 23.939-300.442-8.715-538.351-8.715-538.351zM174.444 960c0 0-74.502-242.415-8.42-581.564-26.647 324.585 8.42 581.564 8.42 581.564zM220.57 960c0 0-68.79-224.484-8.715-538.351-23.939 300.442 8.715 538.351 8.715 538.351zM302.217 147.376h-51.041v13.744h124.223v-13.744h-51.268v-111.252h-21.914v111.252zM480.711 94.743h-64.967v-45.056h72.704v-13.562h-94.618v124.974h90.886v-13.54h-68.972v-39.504h64.967v-13.312zM513.843 55.785c9.717-4.619 23.666-8.146 38.593-8.146 22.164 0 35.089 8.715 35.089 21.345 0 11.492-8.966 18.364-31.607 24.667-27.398 7.396-44.328 18.159-44.328 35.59 0 19.456 21.663 33.906 54.272 33.906 16.907 0 29.628-2.958 36.841-6.121l-5.985-13.153c-5.211 2.389-16.452 5.939-31.63 5.939-22.915 0-31.63-10.194-31.63-18.728 0-11.696 10.217-17.431 33.36-24.121 28.399-8.146 42.576-18.364 42.576-36.705 0-19.274-18.91-36.159-58.505-36.159-16.179 0-33.838 3.709-42.803 8.146l5.757 13.54zM671.175 147.376h-51.018v13.744h124.223v-13.744h-51.291v-111.252h-21.914v111.252z" />
<glyph unicode="&#xe60e;" d="M584.076 733.852v-133.909h-12.609c-7.461 30.89-15.747 53.107-24.833 66.597s-21.582 24.255-37.469 32.293c-8.864 4.376-24.39 6.58-46.554 6.58h-35.378v-381.657c0-25.301 1.349-41.102 4.020-47.463 2.669-6.305 7.929-11.866 15.747-16.603 7.818-4.763 18.501-7.131 32.044-7.131h15.747v-13.49h-248.575v13.49h15.747c13.766 0 24.86 2.559 33.257 7.653 6.056 3.414 10.847 9.251 14.344 17.537 2.559 5.837 3.855 21.171 3.855 45.976v381.686h-34.303c-31.99 0-55.199-7.047-69.681-21.171-20.318-19.713-33.147-47.794-38.516-84.299h-13.299v133.909h426.451zM832.541 553.607v-87.63h-8.589c-5.122 20.209-10.764 34.744-16.958 43.552-6.221 8.838-14.728 15.885-25.547 21.144-6.056 2.863-16.628 4.295-31.743 4.295h-24.117v-249.758c0-16.545 0.909-26.897 2.753-31.028s5.396-7.765 10.738-10.874c5.342-3.11 12.638-4.652 21.86-4.652h10.764v-8.838h-169.534v8.838h10.764c9.387 0 16.932 1.679 22.659 5.012 4.129 2.228 7.433 6.056 9.8 11.452 1.735 3.827 2.616 13.876 2.616 30.090v249.758h-23.4c-21.802 0-37.663-4.599-47.519-13.847-13.876-12.886-22.602-31.275-26.293-55.143h-9.058v87.63h290.808z" />
<glyph unicode="&#xe9b6;" d="M786.828 448q0-66.993-26.19-127.971t-70.422-105.21-105.21-70.422-127.971-26.19-127.971 26.19-105.21 70.422-70.422 105.21-26.19 127.971q0 78.15 34.577 147.279t97.271 115.944q18.463 13.741 41.013 10.734t35.845-21.47q13.741-18.040 10.523-40.59t-21.258-36.291q-42.093-31.781-65.043-77.727t-22.973-97.905q0-44.653 17.382-85.244t47.027-70.21 70.21-47.027 85.244-17.382 85.244 17.382 70.21 47.027 47.027 70.21 17.382 85.244q0 51.959-22.973 97.905t-65.043 77.727q-18.040 13.741-21.258 36.291t10.523 40.59q13.318 18.463 36.081 21.47t40.801-10.734q62.694-46.815 97.271-115.944t34.577-147.279zM512 777.794v-274.828q0-22.339-16.325-38.641t-38.641-16.325-38.641 16.325-16.325 38.641v274.828q0 22.339 16.325 38.641t38.641 16.325 38.641-16.325 16.325-38.641z" />
<glyph unicode="&#xea0f;" d="M759.136 295.264c0 0 0 0 0 0l-152.736 152.736 152.736 152.736c0 0 0 0 0 0 1.632 1.664 2.848 3.552 3.584 5.6 2.080 5.6 0.896 12.128-3.616 16.64l-72.16 72.16c-4.512 4.48-11.040 5.696-16.64 3.616-2.048-0.768-3.968-1.952-5.6-3.584 0 0 0 0 0 0l-152.736-152.736-152.736 152.736c0 0 0 0 0 0-1.664 1.632-3.552 2.848-5.6 3.584-5.6 2.080-12.128 0.896-16.64-3.584l-72.16-72.16c-4.512-4.48-5.696-11.040-3.616-16.64 0.768-2.048 1.952-3.968 3.584-5.6 0 0 0 0 0 0l152.736-152.736-152.736-152.736c0 0 0 0 0 0-1.632-1.664-2.848-3.552-3.584-5.6-2.080-5.6-0.896-12.128 3.616-16.64l72.16-72.16c4.512-4.48 11.040-5.696 16.64-3.616 2.048 0.768 3.968 1.952 5.6 3.584 0 0 0 0 0 0l152.736 152.736 152.736-152.736c0 0 0 0 0 0 1.664-1.632 3.552-2.848 5.6-3.584 5.6-2.080 12.128-0.896 16.64 3.616l72.16 72.16c4.512 4.512 5.696 11.040 3.616 16.64-0.768 2.048-1.952 3.968-3.584 5.6z" />
<glyph unicode="&#xea27;" d="M416 0c-8.32 0-16.512 3.264-22.624 9.376l-246.624 246.624h-114.752c-17.664 0-32 14.336-32 32v320c0 17.664 14.336 32 32 32h114.752l246.624 246.624c9.152 9.152 22.912 11.904 34.88 6.944s19.744-16.608 19.744-29.568v-832c0-12.928-7.808-24.64-19.744-29.568-3.968-1.632-8.128-2.432-12.256-2.432zM719.488 121.856c-12.256 0-24.576 4.672-33.952 14.016-18.752 18.752-18.752 49.12 0 67.872 131.008 131.008 131.008 344.16 0 475.168-18.752 18.752-18.752 49.152 0 67.872s49.152 18.752 67.872 0c81.632-81.6 126.528-190.080 126.528-305.472s-44.896-223.872-126.528-305.472c-9.376-9.376-21.664-14.048-33.952-14.048v0 0.064zM549.024 212.32c-12.288 0-24.608 4.672-33.984 14.048-18.752 18.752-18.752 49.088 0 67.84 81.088 81.12 81.088 213.056 0 294.176-18.752 18.752-18.752 49.152 0 67.872s49.12 18.752 67.872 0c118.528-118.528 118.528-311.392 0-429.92-9.344-9.376-21.632-14.048-33.888-14.016v0z" />
<glyph unicode="&#xea2a;" d="M416 0c-8.32 0-16.512 3.264-22.624 9.376l-246.624 246.624h-114.752c-17.664 0-32 14.336-32 32v320c0 17.664 14.336 32 32 32h114.752l246.624 246.624c9.152 9.152 22.912 11.904 34.88 6.944s19.744-16.608 19.744-29.568v-832c0-12.928-7.808-24.64-19.744-29.568-3.968-1.632-8.128-2.432-12.256-2.432zM555.136 569.44l92-88.704 91.328 94.72 46.112-44.48-91.328-94.688 93.824-90.496-42.944-44.512-93.824 90.432-92.192-95.616-46.112 44.48 92.192 95.616-92 88.736 42.944 44.512z" />
<glyph unicode="&#xf007;" d="M677.183 249.298q0-46.854-28.49-73.978t-75.73-27.125h-341.197q-47.241 0-75.73 27.125t-28.49 73.978q0 20.685 1.365 40.414t5.461 42.553 10.354 42.371 16.794 38.070 24.212 31.63 33.382 20.89 43.531 7.805q3.504 0 16.384-8.397t29.082-18.751 42.166-18.751 52.11-8.397 52.11 8.397 42.166 18.751 29.082 18.751 16.384 8.397q23.825 0 43.531-7.805t33.382-20.89 24.212-31.63 16.794-38.070 10.354-42.371 5.461-42.553 1.365-40.414zM552.277 597.914q0-62.077-43.918-105.995t-105.995-43.918-105.995 43.918-43.918 105.995 43.918 105.995 105.995 43.918 105.995-43.918 43.918-105.995z" horiz-adv-x="796" />
<glyph unicode="&#xf026;" d="M416 0c-8.32 0-16.512 3.264-22.624 9.376l-246.624 246.624h-114.752c-17.664 0-32 14.336-32 32v320c0 17.664 14.336 32 32 32h114.752l246.624 246.624c9.152 9.152 22.912 11.904 34.88 6.944s19.744-16.608 19.744-29.568v-832c0-12.928-7.808-24.64-19.744-29.568-3.968-1.632-8.128-2.432-12.256-2.432z" />
<glyph unicode="&#xf040;" d="M316.712 213.527l33.337 33.337-86.107 86.107-33.337-33.337v-39.208h46.899v-46.899h39.208zM508.336 553.518q0 8.055-8.055 8.055-3.664 0-6.235-2.571l-198.565-198.565q-2.571-2.571-2.571-6.235 0-8.055 8.055-8.055 3.664 0 6.235 2.571l198.565 198.565q2.571 2.571 2.571 6.235zM488.562 623.855l152.417-152.417-304.833-304.833h-152.417v152.417zM738.782 588.698q0-19.41-13.562-32.973l-60.826-60.826-152.417 152.417 60.826 60.462q13.198 13.926 32.973 13.926 19.41 0 33.337-13.926l86.107-85.72q13.562-14.29 13.562-33.337z" />
<glyph unicode="&#xf064;" d="M884.713 554.496q0-10.809-7.896-18.728l-212.992-212.992q-7.896-7.896-18.728-7.896t-18.728 7.896-7.896 18.728v106.496h-93.184q-40.778 0-73-2.503t-64.057-8.943-55.319-17.681-43.895-28.9-33.269-42.007-20.184-57.617-7.282-75.298q0-22.869 2.071-51.177 0-2.503 1.047-9.785t1.047-11.014q0-6.235-3.527-10.399t-9.785-4.164q-6.645 0-11.651 7.077-2.913 3.732-5.416 9.148t-5.621 12.47-4.369 9.99q-52.838 118.556-52.838 187.62 0 82.785 22.050 138.513 67.379 167.64 363.998 167.64h93.184v106.496q0 10.809 7.896 18.728t18.728 7.896 18.728-7.896l212.992-212.992q7.896-7.896 7.896-18.728z" />
<glyph unicode="&#xf075;" d="M1024 448q0-99.429-68.571-183.714t-186.286-133.143-257.143-48.857q-40 0-82.857 4.571-113.143-100-262.857-138.286-28-8-65.143-12.571-9.714-1.143-17.429 5.143t-10 16.571v0.571q-1.714 2.286-0.286 6.857t1.143 5.714 2.571 5.429l3.429 5.143t4 4.857 4.571 5.143q4 4.571 17.714 19.714t19.714 21.714 17.714 22.571 18.571 29.143 15.429 33.714 14.857 43.429q-89.714 50.857-141.429 125.714t-51.714 160.571q0 74.286 40.571 142t109.143 116.857 163.429 78 198.857 28.857q139.429 0 257.143-48.857t186.286-133.143 68.571-183.714z" />
<glyph unicode="&#xf0e6;" d="M402.286 740.571q-87.429 0-163.429-29.714t-120.857-80.571-44.857-109.143q0-46.857 30.286-90.286t85.143-75.429l55.429-32-20-48q19.429 11.429 35.429 22.286l25.143 17.714 30.286-5.714q44.571-8 87.429-8 87.429 0 163.429 29.714t120.857 80.571 44.857 109.143-44.857 109.143-120.857 80.571-163.429 29.714zM402.286 813.714q109.143 0 202-39.143t146.571-106.571 53.714-146.857-53.714-146.857-146.571-106.571-202-39.143q-49.143 0-100.571 9.143-70.857-50.286-158.857-73.143-20.571-5.143-49.143-9.143h-1.714q-6.286 0-11.714 4.571t-6.571 12q-0.571 1.714-0.571 3.714t0.286 3.714 1.143 3.429l1.429 2.857t2 3.143 2.286 2.857 2.571 2.857 2.286 2.571q2.857 3.429 13.143 14.286t14.857 16.857 12.857 16.571 14.286 22 11.714 25.143q-70.857 41.143-111.429 101.143t-40.571 128q0 79.429 53.714 146.857t146.571 106.571 202 39.143zM872 145.714q5.714-13.714 11.714-25.143t14.286-22 12.857-16.571 14.857-16.857 13.143-14.286q0.571-0.571 2.286-2.571t2.571-2.857 2.286-2.857 2-3.143l1.429-2.857t1.143-3.429 0.286-3.714-0.571-3.714q-1.714-8-7.429-12.571t-12.571-4q-28.571 4-49.143 9.143-88 22.857-158.857 73.143-51.429-9.143-100.571-9.143-154.857 0-269.714 75.429 33.143-2.286 50.286-2.286 92 0 176.571 25.714t150.857 73.714q71.429 52.571 109.714 121.143t38.286 145.143q0 44-13.143 86.857 73.714-40.571 116.571-101.714t42.857-131.429q0-68.571-40.571-128.286t-111.429-100.857z" />
<glyph unicode="&#xf112;" d="M873.085 357.729q0-66.901-51.177-181.749-1.206-2.822-4.233-9.671t-5.439-12.083-5.234-8.875q-4.824-6.849-11.287-6.849-6.053 0-9.466 4.028t-3.436 10.081q0 3.618 1.001 10.672t1.001 9.466q2.025 27.398 2.025 49.562 0 40.71-7.054 72.932t-19.547 55.819-32.245 40.71-42.507 28.012-53.589 17.135-62.054 8.67-70.724 2.412h-90.271v-103.174q0-10.468-7.669-18.136t-18.136-7.646-18.136 7.646l-206.325 206.325q-7.669 7.669-7.669 18.136t7.669 18.136l206.325 206.325q7.646 7.669 18.136 7.669t18.136-7.669 7.669-18.136v-103.174h90.271q287.334 0 352.62-162.406 21.367-53.999 21.367-134.19z" />
<glyph unicode="&#xf130;" d="M628.469 547.739v-66.492q0-114.819-76.629-199.745t-189.359-97.4v-68.583h133.005q13.509 0 23.378-9.868t9.868-23.378-9.868-23.378-23.378-9.868h-332.481q-13.509 0-23.378 9.868t-9.868 23.378 9.868 23.378 23.378 9.868h133.005v68.583q-112.73 12.476-189.361 97.4t-76.629 199.745v66.491q0 13.509 9.868 23.378t23.378 9.868 23.378-9.868 9.868-23.378v-66.491q0-96.116 68.313-164.43t164.43-68.311 164.43 68.311 68.311 164.43v66.491q0 13.509 9.868 23.378t23.378 9.868 23.378-9.868 9.868-23.378zM495.465 747.233v-265.988q0-68.583-48.824-117.406t-117.406-48.824-117.406 48.824-48.824 117.406v265.988q0 68.583 48.824 117.406t117.406 48.824 117.406-48.824 48.824-117.406z" horiz-adv-x="660" />
<glyph unicode="&#xf1db;" d="M451.538 750.285q-61.394 0-117.373-24.098t-96.347-64.466-64.466-96.347-24.098-117.373 24.098-117.373 64.466-96.347 96.347-64.466 117.373-24.098 117.373 24.098 96.347 64.466 64.466 96.347 24.098 117.373-24.098 117.373-64.466 96.347-96.347 64.466-117.373 24.098zM814.285 448q0-98.714-48.651-182.067t-132.005-132.005-182.067-48.651-182.067 48.651-132.005 132.005-48.651 182.067 48.651 182.067 132.005 132.005 182.067 48.651 182.067-48.651 132.005-132.005 48.651-182.067z" />
</font>
</defs>
</svg>
