<?xml version="1.0" ?><!DOCTYPE svg  PUBLIC '-//W3C//DTD SVG 1.1//EN'  'http://www.w3.org/Graphics/SVG/1.1/DTD/svg11.dtd'><svg height="32px" style="enable-background:new 0 0 32 32;" version="1.1" viewBox="0 0 32 32" width="32px" xml:space="preserve" xmlns="http://www.w3.org/2000/svg" xmlns:xlink="http://www.w3.org/1999/xlink"><g id="_x38__audio_micro"><g><path d="M22.844,16.125v-3.25h-2v3.25c0,2.671-2.173,4.844-4.844,4.844s-4.844-2.173-4.844-4.844v-3.25h-2v3.25    c0,3.487,2.624,6.368,6,6.786v4.964h-4.531v2.188h10.75v-2.188h-4.531v-4.964C20.22,22.493,22.844,19.612,22.844,16.125z"/><rect height="1.688" width="7.563" x="12.219" y="6.75"/><path d="M16,19.563c2.088,0,3.781-1.693,3.781-3.781V9.938h-7.563v5.844C12.219,17.869,13.912,19.563,16,19.563z"/><path d="M16,1.938c-1.928,0-3.501,1.448-3.734,3.313h7.468C19.501,3.385,17.928,1.938,16,1.938z"/></g></g></svg>